<?xml version="1.0" standalone="no"?>
<!DOCTYPE svg PUBLIC "-//W3C//DTD SVG 20010904//EN"
 "http://www.w3.org/TR/2001/REC-SVG-20010904/DTD/svg10.dtd">
<svg version="1.0" xmlns="http://www.w3.org/2000/svg"
 width="828.000000pt" height="888.000000pt" viewBox="0 0 828.000000 888.000000"
 preserveAspectRatio="xMidYMid meet">

<g transform="translate(0.000000,888.000000) scale(0.100000,-0.100000)"
fill="#000000" stroke="none">
<path d="M3003 8781 c-18 -15 -31 -17 -60 -11 -42 8 -78 7 -107 -5 -20 -9 -56
-41 -56 -50 0 -3 -10 -19 -22 -35 -20 -28 -27 -30 -85 -30 -35 0 -63 -4 -63
-9 0 -5 -11 -12 -25 -15 -22 -6 -47 -27 -81 -68 -16 -20 -43 -116 -46 -163 -3
-36 -7 -42 -45 -59 -62 -28 -78 -73 -75 -200 2 -65 8 -111 19 -133 19 -41 91
-114 138 -139 33 -18 35 -21 35 -71 0 -28 5 -55 10 -58 21 -13 9 -54 -26 -89
l-36 -36 4 -87 c2 -57 7 -88 16 -91 6 -2 12 -9 12 -16 0 -16 40 -60 68 -75 15
-8 22 -21 22 -40 0 -33 23 -84 57 -124 12 -16 23 -33 23 -39 0 -5 9 -21 20
-35 15 -19 20 -41 20 -87 0 -101 -43 -142 -173 -167 -34 -7 -73 -18 -87 -26
-14 -7 -31 -13 -39 -13 -22 0 -156 -44 -159 -52 -2 -5 -12 -8 -23 -8 -10 0
-43 -11 -73 -25 -30 -14 -60 -25 -65 -25 -6 0 -11 -4 -11 -9 0 -5 -11 -12 -24
-15 -25 -6 -78 -75 -91 -118 -4 -12 -14 -32 -21 -43 -8 -11 -14 -26 -14 -35 0
-8 -7 -28 -15 -44 -8 -16 -18 -47 -22 -70 -3 -22 -16 -61 -27 -86 -11 -25 -22
-52 -23 -60 -6 -38 -36 -157 -43 -171 -5 -9 -12 -34 -16 -55 -3 -22 -9 -43
-13 -49 -9 -16 -29 -119 -24 -128 2 -4 19 -14 38 -21 31 -13 34 -19 40 -70 4
-31 11 -56 16 -56 5 0 9 -16 9 -36 0 -48 20 -177 30 -189 4 -5 10 -37 14 -71
4 -34 16 -85 27 -115 12 -30 25 -85 30 -124 5 -38 14 -85 20 -103 19 -58 38
-162 33 -176 -3 -7 6 -24 20 -37 14 -13 26 -31 26 -40 0 -30 89 -271 123 -332
48 -87 85 -114 180 -129 l77 -12 0 -152 c0 -132 2 -153 16 -156 14 -3 16 -32
18 -248 l1 -245 38 -66 c20 -36 46 -74 57 -84 11 -10 20 -23 20 -30 0 -6 14
-26 31 -43 18 -18 29 -35 26 -39 -4 -3 -197 -8 -429 -10 -233 -3 -426 -8 -431
-12 -4 -4 -7 -708 -7 -1564 l0 -1557 -550 0 c-482 0 -550 -2 -550 -15 0 -13
420 -15 3747 -13 2986 2 3747 6 3751 16 3 9 -110 12 -540 12 -410 0 -547 3
-556 12 -16 16 -18 2778 -2 2778 15 0 13 321 -3 341 -10 14 -36 18 -138 20
-135 4 -159 12 -159 55 0 15 9 27 27 36 14 7 31 22 37 33 6 11 17 24 24 28 6
4 12 12 12 18 0 5 9 19 20 31 11 12 20 28 20 35 0 7 4 13 8 13 7 0 92 164 112
215 4 11 15 38 25 60 27 63 48 172 52 280 5 109 -9 177 -54 272 -14 29 -22 57
-18 62 3 6 0 8 -9 5 -9 -3 -17 2 -21 15 -3 12 -11 21 -16 21 -5 0 -18 9 -29
20 -11 11 -31 20 -45 20 -21 0 -100 37 -132 62 -6 5 -117 10 -245 11 -235 2
-376 -12 -463 -46 -16 -7 -47 -12 -67 -12 -39 0 -46 10 -29 43 8 16 13 33 43
150 6 23 15 42 19 42 5 0 6 7 3 15 -4 8 -1 15 5 15 6 0 10 3 9 8 -4 15 14 102
21 102 4 0 8 6 9 13 3 29 25 114 37 142 7 17 16 49 20 72 4 24 10 45 15 48 5
3 11 24 15 48 4 23 11 47 15 52 17 23 31 116 25 168 -8 63 -31 93 -94 122 -39
17 -48 18 -109 6 -37 -8 -92 -15 -122 -18 -30 -2 -69 -11 -87 -19 -37 -17 -86
-18 -115 -3 -15 8 -27 8 -42 0 -21 -10 -300 -41 -411 -44 -33 -1 -63 -6 -66
-10 -3 -4 -34 -7 -69 -5 l-64 3 40 20 c21 11 41 23 42 28 2 4 9 7 16 7 15 0
46 36 38 44 -8 8 29 35 48 36 55 1 150 132 150 207 0 24 -29 84 -47 96 -6 4
-14 25 -18 48 -4 22 -13 51 -19 65 -15 28 -111 124 -147 146 -50 31 -214 4
-242 -39 -4 -7 -15 -13 -22 -13 -8 0 -15 -4 -15 -10 0 -5 -8 -10 -17 -9 -10 0
-13 3 -7 5 15 6 -33 101 -81 160 -33 40 -41 44 -79 44 -24 0 -48 -6 -54 -12
-6 -8 -10 -88 -9 -208 1 -145 -2 -205 -13 -235 -14 -40 -16 -47 -18 -76 -1 -8
-18 -33 -38 -55 -19 -21 -47 -56 -60 -76 -13 -21 -47 -54 -74 -75 -28 -20 -50
-41 -50 -45 0 -4 -8 -17 -17 -27 -15 -19 -17 -19 -29 -3 -8 9 -14 26 -14 38 0
12 -11 42 -25 68 -14 26 -25 62 -25 81 0 19 -4 37 -10 40 -5 3 -10 15 -10 25
0 11 -11 54 -25 97 l-26 78 21 17 c23 19 26 59 6 96 -8 15 -23 47 -34 72 -11
25 -38 84 -61 132 -23 47 -41 91 -41 97 0 6 -4 11 -10 11 -5 0 -10 7 -10 15 0
18 -91 199 -102 203 -4 2 -8 9 -8 16 0 7 -29 42 -65 79 -47 47 -78 70 -108 79
-23 6 -44 15 -47 18 -7 9 -122 40 -147 40 -11 0 -32 9 -45 20 -14 10 -46 24
-72 30 -26 6 -54 14 -64 19 -9 5 -25 12 -34 15 -16 5 -18 19 -18 99 0 91 1 94
31 123 17 16 43 47 58 69 26 41 71 149 71 174 0 7 18 30 40 50 22 20 41 43 42
51 2 8 7 18 13 22 5 4 11 41 13 82 4 64 1 81 -18 113 -20 35 -21 42 -10 89 7
28 11 69 8 92 -2 23 1 42 6 42 18 0 92 69 120 111 16 24 37 56 48 71 14 21 18
46 18 113 0 47 -4 85 -9 85 -5 0 -15 16 -22 35 -7 19 -19 35 -27 35 -7 0 -11
4 -8 9 4 5 1 11 -6 13 -6 2 -13 15 -15 28 -2 13 -7 27 -11 30 -4 3 -8 12 -9
20 -9 64 -33 115 -73 156 -51 52 -88 74 -124 74 -14 0 -28 5 -32 11 -3 6 -16
8 -29 5 -19 -5 -24 -1 -30 22 -10 40 -44 72 -77 72 -16 0 -42 7 -58 15 -17 9
-40 13 -53 10 -13 -4 -47 3 -78 14 -66 26 -97 26 -126 2z m118 -57 c26 -25 30
-26 73 -15 25 6 57 11 71 11 35 0 95 -59 95 -93 0 -29 15 -36 78 -35 53 1 112
-37 156 -100 23 -33 31 -56 34 -104 4 -60 6 -65 52 -110 117 -112 78 -267 -98
-390 -19 -13 -24 -29 -32 -99 -11 -106 -32 -219 -42 -219 -15 0 -40 112 -51
228 l-11 122 -64 0 c-55 0 -66 3 -87 26 -14 15 -25 33 -25 40 0 17 0 17 -43
-1 -49 -20 -58 -19 -102 10 -35 24 -38 25 -50 9 -16 -22 -114 -31 -170 -15
-29 8 -41 8 -44 0 -2 -6 -16 -26 -31 -43 -26 -29 -33 -31 -89 -29 -60 1 -61 1
-62 -25 -2 -102 -17 -192 -37 -220 -12 -16 -22 -35 -22 -41 0 -6 -4 -11 -9
-11 -12 0 -20 41 -27 153 -6 86 -10 99 -28 109 -114 59 -186 165 -186 276 0
82 14 109 72 138 53 27 68 52 68 115 0 60 35 133 79 163 31 21 49 26 102 26
71 0 85 9 124 77 22 37 64 58 100 49 14 -3 36 -9 50 -12 16 -4 33 1 51 15 36
28 72 26 105 -5z m8 -770 c23 -11 46 -15 77 -10 34 4 46 2 56 -12 25 -33 51
-47 102 -52 l51 -5 6 -70 c4 -38 5 -73 2 -77 -2 -4 -19 2 -39 12 -46 27 -132
27 -183 0 -43 -21 -82 -63 -102 -110 -11 -25 -20 -30 -47 -30 -26 0 -34 5 -43
27 -17 46 -58 92 -101 114 -32 16 -53 20 -102 16 -33 -2 -71 -8 -83 -12 -21
-7 -23 -4 -23 33 0 22 3 54 6 71 6 30 9 31 55 31 40 0 53 5 84 34 35 34 36 34
125 32 60 -1 93 3 101 12 16 15 19 15 58 -4z m-215 -258 c48 -36 69 -80 69
-141 0 -76 -30 -123 -100 -159 -65 -33 -153 -10 -206 54 -67 79 -38 212 58
261 56 28 131 22 179 -15z m481 -1 c40 -30 74 -93 75 -138 0 -33 -24 -94 -48
-120 -75 -84 -212 -70 -276 27 -24 35 -27 49 -24 101 3 44 10 69 28 92 56 77
172 95 245 38z m-820 -122 c3 -27 13 -63 21 -81 16 -38 19 -102 4 -102 -19 0
-57 49 -64 81 -14 71 -2 149 24 149 5 0 12 -21 15 -47z m992 -61 c-3 -41 -12
-74 -24 -90 -31 -42 -43 -39 -43 12 0 32 4 46 13 46 9 0 19 22 26 55 17 76 35
61 28 -23z m-477 1 c22 -68 43 -98 88 -128 74 -49 188 -42 251 15 17 16 33 25
36 20 10 -17 -16 -165 -37 -209 -49 -102 -306 -331 -372 -331 -50 0 -113 44
-240 168 -124 122 -152 168 -167 276 -7 47 -10 89 -6 92 3 3 24 -8 47 -25 74
-53 181 -52 254 4 34 26 76 99 76 132 0 24 20 45 39 41 8 -2 22 -26 31 -55z
m-251 -535 c80 -73 153 -119 199 -125 51 -7 105 18 187 86 33 28 63 51 68 51
4 0 7 -39 7 -86 0 -48 5 -103 11 -123 14 -48 -2 -109 -37 -142 -23 -21 -34
-24 -102 -23 -112 1 -221 36 -342 112 -60 37 -130 100 -130 117 0 5 15 17 33
25 31 15 32 17 35 88 2 39 5 72 9 72 3 0 31 -23 62 -52z m-136 -194 c107 -96
234 -162 362 -189 187 -38 270 1 282 133 4 37 10 62 17 62 13 0 358 -118 424
-145 64 -26 102 -80 201 -279 80 -164 191 -406 191 -419 0 -8 -89 -58 -123
-69 -55 -17 -107 -26 -112 -18 -2 4 -9 40 -15 81 -6 41 -18 99 -25 129 -8 30
-19 74 -25 98 -7 25 -17 42 -25 42 -19 0 -19 -14 1 -80 9 -29 19 -74 24 -99 4
-25 13 -71 19 -101 5 -30 15 -102 21 -160 32 -329 87 -721 125 -900 5 -20 -8
-42 -61 -108 -46 -57 -71 -81 -83 -78 -9 3 -38 8 -66 11 -27 4 -66 11 -85 15
-19 5 -82 16 -140 25 -58 9 -143 23 -190 30 -322 53 -545 71 -710 56 -68 -6
-128 -7 -132 -3 -4 4 -14 144 -23 312 -8 168 -20 330 -25 360 -15 87 -32 308
-25 320 3 5 15 10 25 10 10 0 21 4 24 9 5 8 -17 195 -28 246 -3 11 -8 38 -11
59 -5 33 -9 37 -20 25 -14 -14 -13 -21 15 -195 18 -108 18 -107 -52 -129 -51
-16 -94 -19 -228 -20 -182 0 -390 12 -410 25 -13 8 -9 33 38 210 107 402 175
563 256 600 100 46 181 74 351 125 50 14 101 30 115 35 14 5 34 11 45 13 11 3
22 5 24 6 1 0 26 -20 54 -45z m2001 -565 c34 -16 71 -89 96 -191 l22 -87 62
63 c40 41 79 69 109 81 103 39 205 -9 187 -88 -21 -93 -98 -173 -177 -184 -48
-6 -76 16 -71 56 2 22 10 28 45 35 41 9 53 28 53 82 0 26 -29 14 -32 -12 -2
-21 -12 -30 -48 -43 -43 -16 -45 -18 -48 -60 -3 -34 2 -49 19 -67 12 -13 30
-24 39 -24 12 0 19 -11 24 -38 7 -45 30 -69 73 -78 22 -4 33 -13 37 -30 4 -14
18 -34 31 -46 l25 -22 -22 -24 c-13 -14 -56 -40 -96 -59 -40 -19 -82 -47 -93
-62 -18 -24 -31 -30 -82 -36 -90 -10 -159 -52 -193 -117 -14 -26 -20 -51 -64
-251 -21 -97 -29 -114 -59 -141 -21 -19 -21 -18 -70 27 -57 53 -91 62 -194 53
-94 -9 -138 -21 -171 -47 -15 -12 -28 -20 -30 -18 -5 6 -35 177 -51 284 -8 55
-16 116 -19 135 -10 65 -45 364 -51 436 l-6 71 58 13 c32 7 75 21 95 31 l37
17 15 -42 c8 -22 24 -70 34 -106 11 -36 36 -117 56 -180 57 -183 60 -161 -39
-269 -61 -67 -83 -97 -75 -105 12 -12 31 7 278 276 90 97 167 180 173 184 6 3
24 24 40 46 25 36 29 50 29 108 0 37 7 84 15 103 18 42 19 135 4 241 -9 67 -7
96 6 96 2 0 15 -5 29 -11z m562 -298 c9 -32 7 -43 -17 -91 -31 -64 -71 -107
-116 -126 -47 -20 -71 -17 -98 11 -39 38 -32 57 30 84 75 32 102 65 147 181
l10 25 16 -24 c10 -14 22 -41 28 -60z m54 -116 c32 -83 -93 -230 -166 -196
-26 12 -35 61 -11 61 24 0 96 70 123 120 28 51 39 54 54 15z m-3212 -25 c130
-8 248 -2 324 16 32 7 32 8 48 -146 28 -263 37 -385 55 -740 l7 -126 221 4
c246 5 353 -5 732 -68 66 -11 161 -26 210 -34 50 -8 110 -19 135 -25 89 -21
90 -20 178 92 99 126 117 143 167 156 68 17 178 24 208 12 16 -6 55 -37 88
-68 45 -43 59 -63 59 -85 0 -15 -4 -28 -10 -28 -5 0 -37 20 -72 44 -78 54
-108 65 -108 39 1 -11 18 -26 48 -41 26 -13 64 -38 86 -56 36 -31 38 -35 31
-74 -7 -44 -23 -53 -45 -27 -7 9 -42 32 -78 52 -52 29 -66 33 -73 22 -6 -10 2
-19 29 -33 37 -19 91 -57 126 -88 10 -10 16 -24 13 -32 -12 -30 -200 -13 -228
20 -23 28 -47 16 -72 -40 -31 -66 -56 -84 -141 -97 l-65 -10 -88 62 c-303 216
-582 264 -833 142 -62 -30 -160 -124 -230 -221 l-45 -62 -179 0 c-210 0 -295
12 -336 47 -66 55 -143 246 -221 551 -54 214 -148 674 -165 811 l-6 54 43 -7
c24 -4 108 -11 187 -16z m4044 -327 c43 -45 43 -69 4 -200 -20 -65 -45 -147
-56 -183 -10 -36 -33 -109 -49 -162 -17 -54 -33 -114 -37 -133 -3 -19 -10 -38
-15 -41 -5 -3 -9 -13 -9 -22 0 -9 -11 -53 -25 -99 -14 -46 -37 -121 -51 -169
-21 -71 -30 -87 -51 -95 -31 -12 -52 2 -36 23 5 7 15 40 22 73 8 33 16 65 19
70 4 6 14 37 23 70 9 33 23 83 32 110 8 28 23 77 31 110 9 33 21 69 26 80 4
11 13 38 19 60 5 22 19 69 29 105 11 36 34 115 51 175 18 61 37 120 42 131 8
16 7 27 -2 43 -12 18 -23 21 -74 21 -33 0 -76 -4 -95 -10 -19 -5 -98 -14 -175
-20 -77 -6 -165 -15 -195 -21 -30 -5 -100 -14 -155 -19 -275 -25 -434 -41
-473 -50 -23 -6 -58 -10 -76 -10 -44 0 -80 -14 -107 -41 -21 -21 -36 -66 -64
-199 -8 -36 -24 -105 -35 -155 -12 -49 -28 -119 -35 -155 -8 -36 -17 -76 -21
-90 -3 -14 -12 -50 -18 -80 -7 -30 -15 -62 -18 -70 -4 -8 -12 -46 -18 -85 -6
-38 -15 -79 -20 -90 -5 -11 -11 -37 -15 -57 -3 -23 -12 -38 -20 -38 -7 0 -20
-3 -29 -6 -22 -8 -21 22 3 122 11 43 29 120 40 169 33 145 101 444 118 520 33
147 55 219 74 246 34 49 91 67 254 84 83 8 184 19 225 25 41 5 125 14 185 20
61 5 146 15 190 20 44 6 147 17 229 25 82 8 152 17 154 20 3 3 44 5 92 5 81 0
88 -2 112 -27z m-692 -521 c16 -13 24 -32 28 -70 7 -75 -14 -137 -63 -189 -34
-35 -48 -43 -78 -43 -64 0 -94 51 -84 142 15 126 127 217 197 160z m-1955
-293 c127 -33 250 -99 425 -228 194 -143 263 -182 653 -365 54 -25 101 -46
103 -46 14 0 253 -125 272 -143 30 -28 52 -106 52 -182 0 -142 -43 -260 -132
-359 -90 -101 -57 -96 -602 -96 l-475 0 -60 26 c-33 15 -58 30 -55 35 3 5 242
9 535 9 375 0 537 3 551 11 51 28 116 117 149 205 17 44 22 81 22 160 2 154
31 130 -423 341 -137 63 -405 196 -410 203 -3 4 -18 15 -35 24 -16 9 -62 40
-102 69 -136 99 -204 147 -210 147 -4 0 -14 6 -22 14 -26 23 -148 84 -183 91
-18 4 -38 11 -43 16 -21 16 -178 29 -243 20 -172 -25 -272 -101 -410 -310
l-44 -66 7 40 c9 51 73 176 122 236 62 77 183 142 297 160 60 9 204 2 261 -12z
m3338 -168 c89 -43 141 -96 186 -190 36 -76 36 -76 36 -211 0 -121 -3 -144
-29 -220 -91 -276 -241 -499 -488 -727 -123 -113 -200 -163 -252 -163 -53 0
-145 28 -219 68 -71 38 -247 160 -247 171 0 5 11 16 25 25 23 15 26 15 43 -1
10 -10 26 -22 34 -28 9 -5 47 -31 86 -57 84 -55 170 -98 200 -98 11 0 24 -4
27 -10 3 -5 22 -10 41 -10 66 0 269 178 446 390 7 9 27 36 43 60 17 25 33 47
38 48 4 2 7 8 7 14 0 5 8 22 19 36 47 67 115 217 138 302 27 105 32 135 33
207 0 74 -28 181 -56 214 -8 8 -14 20 -14 26 0 19 -70 73 -128 100 -48 22 -76
26 -172 30 -108 4 -158 0 -320 -27 -36 -6 -104 -18 -152 -26 -48 -8 -121 -17
-162 -21 -63 -5 -76 -3 -76 9 0 32 26 47 95 57 234 31 304 42 340 51 64 16
101 18 260 16 147 -2 151 -3 218 -35z m-2456 12 c59 -4 80 -9 74 -17 -5 -6
-12 -32 -16 -59 -4 -26 -11 -50 -16 -53 -5 -3 -44 29 -86 72 -43 42 -69 73
-58 69 11 -3 57 -9 102 -12z m-93 -81 c45 -43 94 -88 109 -100 25 -19 28 -25
20 -49 -8 -23 -18 -29 -56 -37 -41 -7 -53 -5 -112 24 -52 25 -205 118 -225
137 -8 7 24 23 48 23 31 0 99 36 114 60 7 11 15 20 17 20 3 0 41 -35 85 -78z
m-1541 -102 c5 0 0 -15 -12 -33 -11 -18 -35 -64 -54 -102 -44 -89 -73 -116
-130 -122 -43 -5 -44 -5 -51 27 -7 36 -9 224 -2 231 3 3 192 3 249 -1z m3117
-8 c0 -10 -7 -27 -15 -38 -12 -18 -29 -22 -107 -28 -51 -4 -127 -11 -168 -17
-41 -5 -145 -16 -230 -25 -192 -19 -491 -49 -670 -68 l-135 -14 -73 34 c-41
19 -71 38 -67 44 9 14 106 13 102 -2 -2 -12 56 -12 188 2 243 25 302 31 431
46 78 8 183 19 235 24 338 32 444 44 447 51 2 5 17 9 33 9 21 0 29 -5 29 -18z
m-3097 -94 c-7 -35 -18 -82 -23 -106 -13 -54 -58 -105 -119 -131 l-48 -20 -8
-120 c-11 -188 6 -296 61 -394 32 -59 84 -114 117 -126 18 -7 170 -11 423 -11
l395 0 55 -27 c30 -14 52 -28 50 -30 -6 -7 -894 -3 -928 4 -54 11 -138 103
-188 208 l-44 89 -3 155 c-2 86 0 192 4 236 l8 79 45 8 c67 12 90 34 148 146
29 56 56 102 61 102 4 0 1 -28 -6 -62z m2315 -470 c43 -47 53 -128 31 -242
-14 -67 -79 -170 -129 -203 -30 -21 -100 -32 -100 -17 0 4 15 27 34 53 82 112
116 213 116 345 0 94 9 105 48 64z m480 -50 l3 -28 -204 0 c-178 0 -206 2
-211 16 -17 45 -18 45 202 42 l207 -3 3 -27z m112 11 c71 -31 70 -45 -4 -41
-69 4 -81 11 -71 41 8 26 14 26 75 0z m137 -10 c54 -30 66 -43 97 -100 23 -41
28 -63 28 -119 0 -105 -45 -177 -141 -227 -45 -25 -57 -15 -24 20 17 17 47 58
67 89 31 49 36 65 36 118 0 54 -5 69 -37 118 -20 31 -50 72 -67 90 -36 39 -18
44 41 11z m-429 -409 l182 0 0 -30 0 -30 -207 1 c-214 0 -346 9 -360 23 -4 4
3 17 17 28 22 18 34 20 105 14 44 -3 162 -6 263 -6z m342 -8 c0 -10 -57 -39
-92 -46 -21 -5 -28 -2 -33 14 -3 11 -3 24 0 30 7 12 125 14 125 2z m-3800 -84
c0 -13 0 -235 0 -494 0 -259 3 -474 7 -477 4 -4 61 46 128 112 l120 120 120
-114 120 -114 117 116 116 116 124 -121 123 -121 5 497 5 497 310 0 310 0 0
-1545 0 -1545 -855 0 -855 0 -3 1548 -2 1547 55 0 c50 0 55 -2 55 -22z m948
-435 c2 -336 -1 -453 -9 -453 -7 0 -55 43 -108 95 -54 52 -101 95 -105 95 -4
0 -55 -49 -114 -110 -58 -60 -110 -110 -114 -110 -5 0 -58 48 -119 108 -61 59
-116 108 -122 110 -7 1 -55 -40 -107 -93 -52 -52 -98 -95 -102 -95 -5 0 -8
205 -8 455 l0 455 453 -2 452 -3 3 -452z m2571 442 c396 -5 391 -3 345 -76
-102 -163 -195 -299 -205 -299 -26 0 -150 -84 -201 -137 -120 -123 -203 -228
-193 -243 3 -6 84 -75 178 -154 95 -79 266 -222 381 -320 155 -130 216 -176
236 -176 34 0 103 45 124 80 34 58 22 93 -85 234 -38 50 -55 102 -85 256 -8
47 -20 107 -25 133 -8 39 -7 53 5 70 8 12 93 102 188 200 161 165 176 177 209
177 43 0 150 75 275 193 l82 77 181 0 181 0 -2 -1547 -3 -1548 -1730 0 -1730
0 -3 1535 c-1 844 0 1541 3 1548 5 13 626 12 1874 -3z m497 -114 c102 -67 195
-115 241 -126 18 -3 35 -10 37 -14 6 -9 -36 -56 -172 -194 l-107 -109 -6 31
c-4 17 -12 37 -18 45 -23 27 -100 56 -150 56 -47 0 -114 21 -125 38 -3 5 19
47 48 93 30 46 76 119 103 162 26 42 51 77 54 77 4 0 47 -26 95 -59z m-296
-316 c33 -17 66 -25 99 -25 74 0 103 -14 99 -48 -2 -21 -8 -26 -23 -23 -11 1
-51 6 -90 10 -38 4 -85 16 -104 26 -27 14 -38 15 -50 6 -9 -6 -39 -22 -68 -35
-28 -13 -54 -33 -57 -44 -4 -11 -18 -32 -31 -46 -21 -22 -28 -25 -45 -16 -30
16 -25 34 28 89 40 44 161 129 185 131 4 0 30 -11 57 -25z m256 -88 c2 -7 -2
-32 -11 -56 -19 -55 -19 -112 0 -175 20 -66 19 -99 -4 -120 -29 -26 -39 -13
-46 59 -4 36 -11 68 -16 71 -5 3 -9 29 -9 57 0 41 6 62 30 97 16 25 30 53 30
63 0 20 18 23 26 4z m-551 -131 c18 -13 18 -14 -1 -41 -10 -15 -23 -34 -29
-42 -11 -15 15 -41 85 -87 19 -13 73 -56 120 -96 98 -83 101 -86 235 -198 55
-46 122 -103 149 -126 26 -22 64 -50 85 -62 20 -11 37 -27 39 -36 3 -17 -44
-41 -61 -31 -17 10 -156 124 -278 228 -58 49 -170 144 -250 210 -79 66 -161
136 -182 155 l-38 35 46 53 c26 28 50 52 54 52 4 0 16 -6 26 -14z m575 -284
c0 -25 -27 -72 -41 -72 -15 0 -10 74 7 99 13 18 18 20 25 10 5 -8 9 -24 9 -37z
m81 -189 c32 -45 59 -84 59 -88 0 -9 -33 16 -101 75 -63 55 -69 71 -42 110 17
24 18 24 21 5 2 -11 31 -57 63 -102z m53 -134 c24 -19 36 -59 18 -59 -16 0
-49 35 -54 58 -8 27 2 28 36 1z"/>
<path d="M3030 8665 c-15 -18 -82 -20 -113 -4 -18 10 -24 8 -41 -15 -81 -105
-82 -106 -160 -106 -106 -1 -134 -31 -146 -158 -8 -83 -22 -103 -90 -136 -44
-21 -45 -23 -48 -72 -5 -84 39 -162 122 -218 53 -35 64 -33 68 12 3 35 5 37
33 34 16 -2 34 -7 40 -11 5 -5 24 -11 42 -14 35 -7 58 13 83 73 15 36 15 36
71 10 24 -11 63 -20 86 -20 35 0 45 5 62 29 12 16 21 34 21 40 0 18 9 13 59
-29 26 -22 54 -40 62 -40 8 0 32 11 54 25 22 13 43 25 47 25 3 0 19 -25 33
-55 26 -52 29 -55 64 -55 20 0 41 4 46 9 6 5 23 11 39 13 26 3 30 -1 39 -32 5
-19 10 -36 12 -38 8 -9 65 31 110 77 47 49 49 54 53 115 l4 65 -56 54 c-54 54
-56 57 -56 109 0 104 -63 178 -153 178 -67 0 -100 20 -117 69 -18 57 -30 65
-77 52 -57 -16 -97 -13 -126 9 -30 24 -50 25 -67 5z"/>
<path d="M2963 7283 c-3 -7 -3 -17 1 -20 10 -10 165 -8 176 3 20 20 -4 32 -48
24 -23 -4 -60 -4 -83 0 -31 6 -42 4 -46 -7z"/>
</g>
</svg>
