<?xml version="1.0" standalone="no"?>
<!DOCTYPE svg PUBLIC "-//W3C//DTD SVG 20010904//EN"
 "http://www.w3.org/TR/2001/REC-SVG-20010904/DTD/svg10.dtd">
<svg version="1.0" xmlns="http://www.w3.org/2000/svg"
 width="1968.000000pt" height="1968.000000pt" viewBox="0 0 1968.000000 1968.000000"
 preserveAspectRatio="xMidYMid meet">

<g transform="translate(0.000000,1968.000000) scale(0.100000,-0.100000)"
fill="#000000" stroke="none">
<path d="M6388 18395 c-2 -3 -587 -7 -1299 -10 -1495 -6 -1394 -5 -1354 -15
17 -4 22 -8 12 -9 -9 0 -16 -7 -15 -13 2 -7 -3 -12 -10 -10 -9 1 -11 -2 -6
-10 40 -68 137 -217 293 -454 102 -155 280 -426 394 -601 115 -175 270 -408
344 -518 75 -110 248 -368 385 -573 137 -205 255 -375 262 -378 7 -3 13 -10
13 -17 0 -16 38 -76 395 -617 74 -113 157 -241 183 -285 59 -98 186 -296 359
-560 73 -110 170 -260 216 -333 47 -73 170 -262 274 -420 104 -158 252 -384
329 -502 77 -118 269 -408 426 -645 157 -236 289 -436 293 -445 4 -8 60 -96
124 -195 63 -99 143 -225 176 -280 77 -126 236 -371 440 -679 87 -131 165
-250 172 -265 16 -29 79 -101 89 -101 14 0 7 21 -13 37 -26 23 -25 33 2 25 13
-3 19 -1 15 6 -10 15 3 42 19 42 8 0 14 -6 14 -12 0 -9 3 -8 10 2 7 12 12 11
28 -7 l18 -22 132 192 c72 106 172 257 223 337 50 80 115 181 144 225 28 44
78 123 110 175 68 110 126 201 202 317 30 47 51 88 47 95 -4 6 -3 8 3 5 7 -4
52 59 110 150 109 174 112 179 92 168 -8 -5 -11 -4 -6 1 5 5 13 9 18 9 9 0 74
101 170 260 23 39 55 89 70 113 31 46 35 57 17 46 -7 -4 -8 -3 -4 5 4 6 11 9
16 6 10 -6 64 82 66 107 1 20 24 51 32 43 6 -5 52 59 52 72 -1 4 -10 -3 -20
-16 -11 -13 -20 -20 -20 -16 0 4 11 20 25 37 14 16 25 26 25 22 0 -9 46 51 62
81 10 19 10 19 -9 5 -10 -8 -7 -4 7 10 38 36 63 77 54 91 -4 7 -3 9 3 6 6 -4
27 18 47 48 38 58 43 71 24 59 -7 -5 -8 -3 -4 5 5 7 11 10 14 7 5 -6 72 90 71
102 -3 18 2 33 9 28 11 -6 45 51 37 63 -3 5 0 13 6 17 8 4 9 3 5 -4 -4 -7 -5
-12 -3 -12 10 0 67 103 61 111 -3 5 12 27 33 47 48 47 117 158 107 174 -4 6
-3 8 3 5 14 -9 77 88 68 103 -4 6 -2 9 3 8 9 -3 194 265 268 386 16 26 36 58
44 70 60 91 80 123 80 134 0 6 4 12 8 12 13 0 43 59 36 72 -4 6 -3 8 4 5 10
-7 74 86 70 101 -2 4 10 20 25 36 24 26 32 45 28 69 -1 5 3 6 8 3 12 -8 62 81
55 99 -3 8 5 21 20 30 29 19 118 157 114 177 -2 7 2 12 9 11 16 -3 76 94 67
108 -4 8 -3 9 5 5 6 -4 14 0 18 11 3 10 16 32 28 48 35 49 41 62 24 50 -8 -5
-5 -1 7 10 32 28 75 95 69 105 -3 5 3 15 13 22 17 12 132 181 132 194 0 3 -5
2 -12 -2 -7 -4 -8 -3 -4 5 4 6 11 9 15 6 8 -4 258 364 412 608 41 64 97 154
126 200 29 45 50 88 48 94 -2 7 0 12 5 10 10 -2 81 106 291 443 83 135 187
302 231 373 44 70 76 132 73 137 -4 6 -2 9 4 8 14 -4 162 214 156 230 -2 7 -1
10 5 7 5 -3 25 19 45 50 37 59 42 70 23 59 -7 -4 -8 -3 -4 5 4 6 11 9 15 6 7
-4 131 184 131 200 0 3 -5 3 -12 -1 -7 -4 -8 -3 -4 5 4 6 11 9 16 6 9 -6 143
193 143 212 0 7 2 11 5 8 4 -4 52 61 52 71 0 3 -4 2 -10 -1 -5 -3 -10 1 -10 9
0 9 -4 16 -10 16 -5 0 -10 7 -10 15 0 8 -14 17 -36 21 -47 9 -823 -1 -846 -11
-10 -4 -15 -12 -11 -18 3 -6 1 -7 -6 -3 -40 25 -231 -223 -428 -553 -67 -114
-86 -144 -104 -172 -27 -40 -100 -154 -219 -344 -62 -99 -160 -252 -218 -340
-149 -228 -162 -249 -231 -361 -33 -55 -61 -106 -61 -112 0 -7 -4 -12 -9 -12
-7 0 -71 -95 -71 -106 0 -3 -11 -20 -25 -38 -14 -18 -22 -36 -18 -39 3 -4 2
-7 -4 -7 -6 0 -26 -25 -44 -55 -39 -63 -101 -164 -134 -215 -13 -19 -46 -73
-75 -120 -29 -47 -64 -101 -76 -121 -13 -19 -24 -40 -24 -46 0 -6 -7 -16 -15
-23 -16 -14 -309 -479 -311 -495 -1 -7 -14 -24 -28 -40 -25 -26 -170 -248
-214 -326 -34 -61 -263 -440 -311 -514 -25 -40 -62 -99 -81 -130 -19 -32 -53
-86 -75 -120 -22 -34 -60 -94 -85 -134 -25 -40 -59 -93 -75 -119 -17 -26 -69
-108 -116 -182 -47 -74 -98 -156 -115 -181 -16 -26 -77 -118 -135 -205 -58
-88 -141 -217 -184 -289 -138 -229 -332 -530 -440 -680 -20 -27 -45 -65 -57
-82 -11 -18 -24 -33 -29 -33 -5 0 -9 -7 -9 -14 0 -8 -22 -38 -48 -66 -43 -45
-50 -49 -61 -36 -8 9 -17 16 -22 16 -13 0 -57 48 -61 67 -2 10 -9 17 -14 16
-6 -1 -11 4 -11 11 0 11 -132 215 -185 286 -28 37 -148 224 -203 315 -79 131
-372 576 -610 925 -80 118 -167 248 -193 288 -106 166 -266 407 -272 412 -4 3
-13 16 -20 30 -35 68 -133 209 -141 204 -5 -3 -8 -2 -7 3 4 13 -63 124 -72
118 -4 -3 -11 7 -14 21 -4 14 -22 47 -41 74 -19 28 -35 53 -35 56 0 4 -18 31
-40 60 -22 29 -40 55 -40 58 0 3 -51 80 -112 171 -62 91 -122 181 -133 199
-11 18 -36 55 -55 82 -20 27 -41 60 -48 74 -7 14 -28 42 -47 64 -19 21 -35 45
-35 52 0 8 -7 17 -15 20 -8 4 -13 10 -10 14 3 5 1 11 -4 14 -5 4 -26 35 -46
71 -20 36 -40 65 -45 65 -6 0 -10 6 -10 13 0 7 -42 75 -92 152 -51 77 -131
200 -178 274 -47 73 -128 199 -181 279 -52 81 -144 224 -203 317 -60 94 -130
204 -156 245 -114 178 -215 369 -203 381 14 13 563 32 708 24 77 -4 150 -7
163 -6 50 2 109 -48 183 -154 18 -28 143 -221 276 -430 133 -209 294 -461 359
-560 65 -99 172 -265 237 -370 66 -104 192 -300 282 -435 89 -135 168 -256
175 -270 13 -24 190 -297 259 -398 55 -82 144 -222 240 -377 98 -160 457 -698
550 -825 63 -87 91 -113 91 -87 0 8 8 17 18 19 25 6 67 -7 65 -20 -8 -34 31
13 100 121 168 265 234 375 221 370 -10 -4 -12 0 -8 11 3 9 13 15 22 14 10 -2
18 5 20 17 2 11 9 25 14 30 8 7 8 5 3 -5 -7 -13 -6 -13 8 0 9 8 19 29 22 45 5
23 4 26 -4 15 -9 -12 -11 -11 -11 7 0 12 5 25 10 28 21 13 10 91 -19 146 -16
30 -34 53 -40 52 -6 -2 -8 3 -6 10 8 18 -105 207 -308 517 -99 151 -194 298
-212 325 -61 96 -170 261 -278 425 -61 91 -182 280 -270 420 -88 140 -188 298
-222 350 -34 52 -126 199 -204 325 -79 127 -165 264 -191 305 -27 41 -111 177
-189 302 -186 299 -417 651 -502 763 -82 109 -123 150 -140 140 -8 -5 -10 -4
-5 3 16 26 -50 41 -210 46 -88 4 -163 4 -166 1z m2532 -4711 c0 -8 -4 -12 -10
-9 -5 3 -10 10 -10 16 0 5 5 9 10 9 6 0 10 -7 10 -16z m76 -19 c-9 -9 -16 -13
-16 -8 0 12 22 34 28 28 2 -2 -3 -11 -12 -20z m-66 -3089 c0 -6 -7 -2 -15 8
-8 11 -15 25 -15 30 0 6 7 2 15 -8 8 -11 15 -25 15 -30z"/>
<path d="M17470 18374 c-218 -8 -718 -11 -1360 -9 -558 1 -1036 0 -1063 -5
-28 -4 -58 -16 -73 -31 -39 -36 -225 -320 -217 -332 3 -5 1 -7 -5 -3 -6 3 -14
-4 -18 -16 -4 -13 -12 -27 -19 -33 -12 -10 -185 -271 -219 -331 -16 -28 -77
-125 -214 -340 -34 -54 -107 -166 -162 -249 -54 -82 -122 -188 -151 -235 -58
-94 -97 -154 -281 -435 -69 -104 -160 -246 -203 -315 -43 -69 -88 -141 -100
-160 -12 -19 -57 -91 -100 -160 -42 -69 -87 -141 -100 -160 -78 -122 -180
-279 -195 -301 -42 -60 -180 -281 -180 -288 0 -4 -9 -19 -21 -32 -23 -28 -128
-187 -137 -208 -5 -13 -122 -194 -140 -216 -13 -16 -136 -206 -166 -255 -74
-124 -137 -227 -146 -240 -5 -8 -17 -28 -26 -45 -9 -16 -51 -82 -92 -145 -41
-63 -85 -131 -97 -150 -13 -19 -52 -81 -88 -136 -36 -56 -73 -114 -82 -130
-37 -65 -62 -104 -92 -148 -18 -26 -33 -50 -33 -55 0 -4 -17 -31 -37 -59 -21
-29 -54 -78 -74 -110 -20 -31 -57 -89 -83 -128 -25 -40 -46 -74 -46 -78 0 -3
-27 -45 -60 -94 -33 -49 -60 -92 -60 -95 0 -4 -18 -30 -40 -59 -22 -29 -40
-56 -40 -60 0 -4 -17 -33 -38 -65 -21 -32 -42 -65 -45 -73 -4 -8 -20 -34 -35
-56 -15 -23 -40 -64 -56 -90 -17 -27 -40 -62 -53 -78 -13 -16 -33 -45 -44 -65
-35 -62 -63 -107 -92 -147 -22 -32 -94 -144 -204 -320 -7 -10 -40 -63 -75
-117 -35 -53 -82 -128 -106 -165 -23 -37 -70 -110 -104 -162 -34 -52 -108
-165 -163 -250 -56 -85 -130 -202 -165 -260 -35 -58 -114 -181 -175 -275 -62
-93 -155 -237 -207 -320 -52 -82 -142 -222 -199 -310 -58 -88 -132 -202 -165
-253 -57 -89 -130 -203 -255 -397 -32 -49 -72 -110 -89 -135 -17 -25 -44 -65
-59 -90 -16 -25 -55 -88 -89 -140 -102 -160 -148 -232 -186 -292 -48 -77 -100
-159 -151 -238 -23 -36 -59 -92 -79 -125 -21 -33 -46 -71 -55 -85 -10 -14 -34
-54 -55 -90 -20 -36 -69 -114 -107 -175 -38 -60 -90 -144 -115 -185 -25 -41
-61 -97 -80 -123 -19 -26 -47 -69 -62 -95 -15 -27 -39 -66 -55 -88 -15 -21
-60 -88 -99 -149 -39 -60 -97 -148 -128 -195 -57 -85 -97 -149 -194 -310 -57
-95 -59 -99 -100 -161 -38 -60 -75 -117 -101 -159 -13 -19 -42 -66 -67 -105
-24 -38 -59 -97 -78 -130 -34 -59 -75 -122 -236 -366 -46 -69 -84 -131 -84
-136 0 -6 -7 -17 -17 -24 -14 -12 -78 -103 -93 -134 -3 -5 -66 -102 -141 -215
-74 -113 -149 -226 -165 -251 -16 -25 -80 -124 -142 -220 -62 -96 -144 -223
-182 -284 -38 -60 -100 -159 -137 -218 -83 -132 -118 -188 -215 -337 -41 -63
-96 -149 -122 -190 -27 -41 -60 -93 -74 -115 -14 -22 -36 -56 -48 -75 -12 -19
-52 -84 -90 -145 -37 -60 -108 -173 -159 -250 -132 -201 -198 -304 -275 -430
-37 -60 -100 -162 -140 -225 -107 -167 -107 -168 -235 -375 -209 -338 -263
-419 -322 -484 -22 -25 -41 -49 -42 -53 -1 -5 -4 -8 -8 -9 -5 -1 -20 -10 -34
-20 -49 -34 -113 -41 -300 -30 -242 15 -531 39 -538 46 -3 4 3 21 13 38 10 18
32 59 49 92 17 33 51 94 77 135 26 41 95 154 155 250 59 96 122 198 140 225
17 28 74 116 126 197 52 81 105 165 119 188 29 46 205 325 490 775 112 176
285 451 385 610 166 264 238 378 330 520 235 362 332 514 439 690 70 116 157
257 193 315 128 206 164 268 161 282 -2 7 3 12 9 11 7 -2 20 11 29 29 9 17 58
95 108 172 51 78 116 181 146 229 116 187 204 325 395 626 200 314 235 373
228 384 -3 6 -1 7 5 3 6 -4 36 35 74 94 35 55 75 119 90 143 15 23 31 49 35
57 5 9 33 54 64 100 31 47 84 130 119 185 35 55 73 116 85 135 36 55 116 183
131 207 17 27 18 37 2 27 -7 -4 -8 -3 -4 5 4 6 11 9 16 6 7 -4 190 283 190
300 0 3 -5 3 -12 -1 -7 -4 -8 -3 -4 5 4 6 11 9 16 6 5 -3 17 9 26 27 9 18 23
41 31 50 8 9 12 21 9 27 -4 5 2 15 13 20 16 9 48 52 71 96 3 6 35 56 73 113
68 105 76 119 55 106 -7 -4 -8 -3 -4 5 4 6 11 9 16 6 12 -7 73 92 64 106 -4 7
-3 9 3 6 6 -4 27 18 47 48 38 58 43 71 24 59 -7 -4 -8 -3 -4 5 4 6 11 9 14 7
4 -2 33 37 64 87 32 53 52 95 46 98 -7 4 -6 9 1 13 6 4 11 4 11 -1 0 -4 9 6
20 22 11 17 18 36 15 44 -8 19 18 72 32 67 19 -8 41 26 48 74 4 35 1 52 -14
78 -12 17 -26 32 -31 32 -6 0 -8 4 -5 10 6 9 -1 22 -50 100 -13 19 -78 123
-145 230 -68 107 -198 307 -289 444 -91 137 -184 277 -206 311 -101 160 -159
250 -283 438 -73 111 -135 209 -139 217 -3 8 -23 40 -43 70 -21 30 -54 81 -74
113 -82 131 -111 176 -159 246 -42 64 -105 163 -206 329 -14 24 -125 194 -246
378 -121 184 -232 353 -246 376 -14 24 -116 185 -226 358 -110 173 -246 389
-304 480 -138 221 -161 256 -244 375 -19 28 -38 57 -42 65 -3 8 -34 58 -68
110 -34 52 -75 116 -91 142 -200 322 -575 903 -593 918 -3 3 -17 25 -30 50
-13 25 -38 68 -56 95 -17 28 -52 82 -77 120 -25 39 -60 95 -77 125 -18 30 -54
87 -79 127 -26 40 -89 139 -140 220 -159 252 -250 393 -331 518 -43 66 -104
161 -136 210 -32 50 -90 140 -130 200 -40 61 -100 155 -135 210 -34 55 -72
116 -85 135 -85 132 -269 431 -355 578 -17 29 -37 55 -45 59 -8 3 -15 12 -15
20 0 18 -58 103 -70 103 -6 0 -10 5 -10 11 0 18 -61 90 -71 83 -5 -3 -24 5
-42 18 l-32 23 -410 -3 c-292 -2 -414 -7 -424 -15 -7 -6 -26 -10 -41 -9 -16 2
-32 -3 -36 -10 -10 -15 -13 -58 -4 -58 4 0 7 -6 7 -14 0 -21 56 -106 70 -106
7 0 10 -7 7 -15 -4 -8 1 -17 10 -21 9 -3 14 -10 11 -14 -2 -4 5 -19 18 -32 12
-14 23 -31 25 -38 4 -19 48 -80 54 -75 2 3 5 -1 5 -8 0 -17 70 -128 91 -145 9
-6 17 -18 18 -25 1 -6 24 -48 51 -92 139 -223 213 -341 283 -450 150 -234 428
-673 597 -940 58 -93 145 -226 192 -295 47 -69 137 -207 200 -307 64 -100 193
-300 287 -445 153 -235 285 -443 523 -824 153 -244 259 -410 372 -582 162
-249 265 -409 343 -537 76 -124 359 -571 492 -775 48 -74 149 -232 224 -350
75 -118 209 -327 297 -465 87 -137 191 -302 230 -365 140 -231 477 -750 732
-1129 167 -249 286 -447 317 -526 12 -31 15 -63 12 -112 -4 -64 -10 -77 -90
-213 -47 -80 -104 -174 -127 -210 -23 -36 -49 -81 -57 -100 -9 -19 -22 -39
-29 -45 -11 -9 -72 -100 -219 -326 -40 -63 -68 -105 -111 -174 -21 -33 -48
-76 -60 -95 -13 -19 -26 -45 -30 -57 -3 -13 -11 -23 -16 -23 -5 0 -14 -10 -19
-22 -5 -13 -18 -34 -29 -48 -28 -36 -286 -431 -301 -460 -12 -22 -57 -95 -125
-200 -38 -59 -249 -402 -284 -460 -17 -30 -81 -131 -142 -225 -60 -93 -142
-222 -181 -285 -92 -148 -110 -177 -260 -405 -69 -104 -172 -266 -228 -360
-57 -93 -147 -237 -200 -320 -53 -82 -161 -253 -240 -380 -79 -126 -205 -323
-279 -437 -75 -113 -148 -226 -163 -250 -15 -23 -53 -84 -85 -135 -32 -50 -84
-133 -116 -185 -32 -51 -102 -161 -155 -245 -53 -84 -115 -182 -137 -218 -22
-36 -63 -100 -90 -143 -100 -153 -354 -551 -472 -737 -117 -185 -149 -236
-414 -652 -69 -109 -150 -238 -179 -288 -81 -137 -345 -537 -526 -799 -29 -43
-51 -82 -48 -87 3 -5 0 -8 -7 -7 -7 2 -15 -6 -17 -17 -2 -11 -9 -24 -15 -30
-19 -16 -38 -65 -30 -78 4 -7 -1 -6 -10 2 -9 7 -18 11 -18 7 -7 -32 -21 -56
-30 -50 -10 6 -12 -2 -13 -72 -1 -28 4 -52 9 -54 6 -2 647 -5 1425 -7 1412 -3
1473 -2 1454 28 -3 5 1 6 8 4 35 -14 207 227 443 620 158 263 192 317 478 750
90 137 256 396 307 480 17 28 61 97 99 155 38 58 136 211 217 340 174 276 214
339 389 605 72 110 202 315 289 455 87 140 182 293 212 340 131 205 164 261
159 270 -4 6 1 13 10 16 22 9 157 213 148 227 -3 5 -2 7 3 4 5 -3 19 9 30 26
72 109 133 205 144 227 14 28 41 69 155 245 44 66 79 128 79 137 0 9 3 15 7
12 4 -2 22 20 41 48 40 65 44 73 28 63 -8 -5 -11 -3 -8 6 3 8 11 13 17 12 14
-4 71 85 71 111 0 11 3 16 7 13 3 -4 15 5 25 20 20 32 23 47 6 37 -7 -4 -8 -3
-4 5 4 6 11 9 16 6 8 -5 71 88 69 103 -3 19 2 33 11 27 9 -6 178 246 375 560
33 52 106 166 162 253 57 86 100 163 98 170 -3 7 -1 11 4 8 9 -6 141 191 301
449 51 83 104 167 117 187 14 20 22 42 18 48 -3 6 -1 9 5 8 6 -2 38 39 71 91
62 97 66 107 47 95 -7 -4 -8 -3 -4 5 4 6 11 9 16 6 5 -3 19 11 30 32 11 21 37
64 58 95 20 32 61 97 91 145 30 48 63 99 73 112 21 27 24 45 6 35 -8 -4 -10
-3 -5 2 5 5 12 9 17 9 5 0 51 65 103 145 52 80 173 263 268 407 188 282 230
348 275 433 16 30 34 59 40 65 26 23 124 187 118 197 -4 6 -2 8 4 4 6 -4 35
33 72 91 34 54 75 121 92 148 18 28 55 86 83 130 59 93 114 179 251 395 53 85
124 196 156 245 32 50 56 96 53 102 -2 7 0 12 5 10 6 -1 46 54 89 123 129 202
183 288 265 413 42 65 83 130 91 145 9 15 23 39 33 54 9 15 33 53 53 85 43 68
207 325 255 400 19 28 37 60 41 70 3 10 17 31 30 47 13 16 22 35 19 43 -3 8
-2 11 4 8 5 -3 17 9 26 27 9 18 23 41 31 50 8 9 12 22 8 28 -4 7 8 26 29 45
33 30 51 65 24 49 -7 -4 -8 -3 -4 5 4 6 12 9 17 6 5 -4 12 2 16 12 3 10 17 31
30 47 13 16 22 35 19 42 -3 7 0 16 6 20 7 4 8 3 4 -4 -4 -7 -5 -12 -2 -12 6 0
36 56 33 61 -1 2 0 3 2 2 5 -3 41 43 41 52 0 3 -6 3 -12 0 -7 -4 -3 2 9 12 12
10 34 36 49 58 14 22 20 34 13 28 -20 -20 -34 -15 -16 5 10 10 17 23 17 29 0
11 31 41 43 42 11 0 48 47 46 58 -3 19 2 34 10 29 5 -3 36 37 70 90 63 98 69
110 49 98 -7 -4 -8 -3 -4 5 4 6 11 9 16 6 12 -7 152 214 144 227 -4 6 -3 8 3
5 6 -4 20 8 31 26 11 19 28 47 38 62 11 16 13 26 7 22 -24 -15 -13 11 11 26
22 15 48 52 161 227 75 117 105 171 100 180 -3 5 4 14 15 20 23 13 53 66 45
81 -4 5 -1 8 6 7 7 -2 14 3 15 10 1 6 2 17 3 23 0 5 5 8 9 5 11 -6 45 51 37
63 -3 5 0 13 6 17 8 4 9 3 5 -4 -4 -7 -5 -12 -3 -12 10 0 67 103 61 111 -3 6
15 31 40 56 32 31 45 51 41 63 -3 10 2 23 12 31 15 12 16 12 9 -1 -4 -8 0 -6
9 5 9 11 24 34 32 50 15 28 15 29 0 16 -25 -20 -21 -8 8 25 14 16 25 25 25 20
0 -5 16 12 36 38 19 25 32 51 29 56 -3 6 0 13 8 16 19 7 200 282 202 306 1 10
5 21 10 25 4 5 5 1 0 -7 -15 -28 3 -5 39 48 20 30 33 59 29 65 -3 7 -3 9 2 5
11 -10 78 89 70 102 -4 6 1 13 9 16 15 6 59 68 170 242 48 76 54 88 34 76 -7
-4 -8 -3 -4 5 4 6 11 9 16 6 4 -3 10 1 13 9 3 8 32 54 64 103 32 48 58 93 58
100 0 7 7 18 16 25 29 23 200 298 193 310 -4 7 -3 8 4 4 7 -4 19 9 31 33 12
22 25 42 31 46 5 3 10 13 10 21 0 8 9 25 20 37 16 17 105 156 175 275 6 9 54
82 106 162 53 80 126 195 164 255 147 237 265 433 265 440 0 3 -5 3 -12 -1 -7
-4 -8 -3 -4 5 4 6 11 9 15 6 5 -2 36 36 69 84 66 95 107 136 159 157 36 15
291 26 299 12 3 -4 14 -8 25 -8 13 0 18 4 13 12 -4 6 -3 8 3 5 8 -5 200 -14
368 -17 22 0 26 -3 16 -9 -17 -11 51 -22 111 -19 47 2 55 -5 38 -39 -8 -16
-14 -33 -15 -40 0 -6 -4 -15 -9 -20 -5 -5 -6 -2 -1 7 5 10 5 12 -2 5 -7 -8
-152 -245 -308 -507 -10 -18 -105 -163 -210 -323 -105 -159 -228 -348 -274
-420 -45 -71 -127 -200 -182 -285 -285 -444 -380 -595 -504 -795 -77 -125
-104 -167 -200 -315 -38 -58 -107 -164 -154 -237 -47 -72 -108 -168 -136 -213
-27 -44 -86 -137 -130 -205 -44 -69 -107 -167 -140 -220 -33 -52 -88 -138
-122 -191 -35 -52 -63 -98 -63 -100 0 -3 -8 -17 -18 -32 -11 -15 -30 -45 -44
-67 -82 -130 -107 -168 -157 -245 -31 -46 -108 -167 -171 -267 -63 -100 -169
-267 -234 -370 -143 -224 -200 -314 -235 -370 -24 -38 -100 -158 -176 -278
-17 -27 -40 -64 -51 -82 -24 -40 -138 -224 -172 -278 -14 -22 -42 -65 -62 -95
-21 -30 -39 -59 -41 -65 -2 -5 -50 -80 -107 -165 -56 -85 -111 -168 -121 -185
-46 -74 -140 -219 -206 -320 -40 -60 -130 -204 -200 -320 -70 -115 -138 -226
-150 -245 -12 -19 -60 -97 -106 -173 -80 -131 -233 -374 -304 -482 -119 -181
-165 -255 -165 -264 0 -5 -6 -16 -12 -23 -12 -12 -48 -67 -73 -110 -6 -9 -32
-51 -60 -93 -148 -227 -185 -284 -211 -324 -16 -24 -47 -72 -69 -107 -22 -35
-52 -80 -66 -101 -14 -21 -43 -65 -64 -98 -21 -33 -47 -72 -57 -87 -31 -47
-68 -116 -68 -129 0 -7 -7 -20 -15 -29 -20 -23 -27 -110 -9 -127 16 -17 11
-142 -7 -153 -13 -9 8 -45 162 -282 48 -73 119 -185 159 -248 40 -63 128 -198
195 -300 68 -102 140 -214 162 -250 22 -36 91 -144 153 -240 140 -217 489
-764 540 -845 20 -33 90 -145 155 -250 160 -258 330 -524 650 -1015 129 -199
409 -642 618 -980 94 -152 647 -998 725 -1110 73 -104 121 -159 171 -193 l46
-32 380 -1 c209 -1 364 2 345 6 -24 5 -28 8 -12 9 15 1 22 7 22 22 0 11 4 17
10 14 17 -11 40 9 30 25 -9 13 -11 13 -21 0 -8 -12 -10 -10 -5 10 3 14 6 28 6
33 0 4 11 7 24 7 25 0 51 -22 39 -33 -3 -4 -1 -7 5 -7 7 0 12 -8 12 -17 0 -13
2 -15 8 -5 6 9 16 10 34 3 25 -9 26 -9 18 18 -12 44 -127 230 -410 666 -174
269 -167 258 -378 590 -244 384 -610 952 -849 1319 -51 77 -134 209 -186 291
-214 340 -312 495 -372 585 -308 467 -399 606 -529 812 -83 131 -207 328 -276
439 -69 110 -206 324 -306 473 -183 276 -346 542 -359 584 -7 24 35 168 61
207 7 11 28 48 46 82 18 34 70 123 116 198 45 75 80 140 77 146 -4 5 -2 8 4 7
5 -2 60 71 121 162 181 268 455 683 510 772 29 46 100 158 158 250 59 92 129
202 156 245 28 43 103 161 169 263 166 256 315 493 352 557 6 10 24 38 40 63
16 25 34 53 40 62 5 9 55 85 110 167 55 83 127 193 160 246 70 113 201 316
348 540 58 88 158 246 222 350 124 200 131 212 271 425 76 117 263 410 394
620 22 36 57 91 78 122 37 58 251 396 307 486 17 27 58 91 91 143 34 52 87
135 119 184 32 50 95 146 140 215 45 69 108 168 140 220 106 172 149 239 239
378 49 75 103 160 121 187 18 28 103 158 190 290 87 132 212 323 278 425 66
102 127 196 136 210 9 14 18 30 21 35 3 6 41 64 84 130 82 124 238 367 285
443 51 84 156 249 256 402 128 195 195 299 274 425 35 55 74 116 86 135 56 86
80 126 81 135 1 6 2 16 3 23 0 6 7 12 15 12 16 0 29 25 30 55 1 11 7 20 15 20
8 0 15 7 16 16 2 9 15 28 29 43 15 14 24 31 21 36 -3 6 -1 10 5 10 6 0 8 5 5
10 -4 6 -3 9 2 8 4 -2 8 0 8 4 0 4 9 13 19 21 10 8 16 19 12 25 -3 6 -1 14 5
18 8 4 9 3 5 -4 -4 -7 -5 -12 -2 -12 3 0 10 10 17 21 8 15 8 19 0 15 -6 -4
-11 0 -11 9 0 8 -11 20 -25 25 -14 5 -25 12 -25 15 0 4 5 3 10 0 6 -3 10 -1
10 4 0 6 3 10 8 10 20 -3 25 2 12 12 -13 9 -13 10 0 6 8 -2 14 -12 12 -21 -3
-14 0 -15 17 -4 15 9 17 15 8 21 -9 7 -9 10 1 14 6 2 9 9 6 14 -3 6 2 19 11
29 27 30 10 41 -63 38 -37 -2 -222 -8 -412 -14z m444 -40 c9 -22 -3 -32 -14
-14 -12 19 -12 30 -1 30 5 0 12 -7 15 -16z m-15926 -17 c-2 -17 8 -33 34 -56
34 -30 52 -30 45 1 -2 7 -2 10 0 5 3 -4 9 -4 15 -1 6 4 6 -1 -1 -13 -6 -11 -7
-23 -4 -27 3 -3 1 -6 -6 -6 -7 0 -10 -4 -7 -8 2 -4 1 -14 -5 -22 -7 -12 -9
-10 -9 8 0 30 -16 28 -35 -5 -14 -25 -15 -25 -9 -4 3 13 2 21 -3 18 -5 -3 -14
3 -21 14 -10 15 -10 19 0 19 9 1 9 4 -2 13 -18 15 -23 34 -15 64 7 30 27 30
23 0z m27 4 c3 -5 1 -12 -5 -16 -5 -3 -10 1 -10 9 0 18 6 21 15 7z m15835 -23
c0 -5 -5 -8 -11 -8 -5 0 -7 5 -4 10 3 6 1 10 -5 10 -6 0 -8 5 -4 11 6 11 23
-6 24 -23z m-15900 17 c0 -7 -30 -13 -34 -7 -3 4 4 9 15 9 10 1 19 0 19 -2z
m15882 -35 c4 0 8 -6 8 -12 0 -7 -11 -1 -24 12 -13 14 -21 29 -18 34 3 6 10 0
15 -12 6 -12 14 -22 19 -22z m-15902 -10 c0 -5 -2 -10 -4 -10 -3 0 -8 5 -11
10 -3 6 -1 10 4 10 6 0 11 -4 11 -10z m15858 -65 c0 -17 -1 -17 -5 -2 -2 9 -8
17 -13 17 -7 0 -7 17 0 40 3 11 19 -36 18 -55z m-15658 25 c-19 -13 -30 -13
-30 0 0 6 10 10 23 10 18 0 19 -2 7 -10z m15527 4 c-3 -3 -12 -4 -19 -1 -8 3
-5 6 6 6 11 1 17 -2 13 -5z m-1688 -717 c51 1 52 0 16 -6 -22 -3 -83 -4 -135
-1 l-95 5 70 5 c39 3 74 3 79 1 4 -2 34 -4 65 -4z m-311 -14 c-10 -2 -28 -2
-40 0 -13 2 -5 4 17 4 22 1 32 -1 23 -4z m-2324 -3258 c-6 -16 -24 -21 -24 -7
0 11 11 22 21 22 5 0 6 -7 3 -15z m-4972 -4657 c-6 -6 -15 -8 -19 -4 -4 4 -1
11 7 16 19 12 27 3 12 -12z m-392 -3743 c-7 -9 -15 -13 -17 -11 -7 7 7 26 19
26 6 0 6 -6 -2 -15z m7010 -3575 c0 -5 -8 -10 -17 -10 -15 0 -16 2 -3 10 19
12 20 12 20 0z m-710 -96 c0 -2 -9 -4 -21 -4 -11 0 -18 4 -14 10 5 8 35 3 35
-6z m-42 -21 c38 -9 35 -22 -4 -17 -42 5 -54 11 -54 26 0 6 7 7 18 3 9 -4 27
-10 40 -12z m76 -4 c-2 -4 2 -9 8 -12 7 -2 1 -4 -14 -3 -27 1 -34 7 -23 18 8
8 35 5 29 -3z m-12374 -1339 c0 -5 -5 -10 -11 -10 -5 0 -7 5 -4 10 3 6 8 10
11 10 2 0 4 -4 4 -10z m88 1 c11 -7 10 -10 -3 -15 -13 -4 -15 -13 -10 -36 5
-23 3 -30 -9 -30 -9 0 -16 -5 -16 -11 0 -5 3 -8 8 -6 4 2 30 1 57 -3 34 -5 3
-7 -94 -6 -93 0 -146 5 -148 12 -5 14 59 33 91 27 15 -3 26 -1 26 6 0 6 7 11
16 11 8 0 13 -4 9 -9 -9 -16 13 -23 36 -10 15 8 18 13 10 19 -8 4 -10 17 -5
33 7 29 11 31 32 18z m-115 -41 c-6 -24 -7 -24 -24 -3 -10 11 -10 14 -1 9 7
-4 12 -1 12 9 0 9 4 14 9 11 5 -3 7 -15 4 -26z m187 19 c0 -6 -4 -7 -10 -4 -5
3 -10 1 -10 -4 0 -6 -4 -11 -8 -11 -17 0 -8 26 10 27 10 1 18 -3 18 -8z m57 5
c-3 -3 -12 -4 -19 -1 -8 3 -5 6 6 6 11 1 17 -2 13 -5z m1703 -34 c0 -5 -5 -10
-11 -10 -5 0 -7 5 -4 10 3 6 8 10 11 10 2 0 4 -4 4 -10z m-150 -14 c0 -3 -4
-8 -10 -11 -5 -3 -10 -1 -10 4 0 6 5 11 10 11 6 0 10 -2 10 -4z m-262 -43
c-10 -2 -28 -2 -40 0 -13 2 -5 4 17 4 22 1 32 -1 23 -4z m140 0 c-21 -2 -57
-2 -80 0 -24 2 -7 4 37 4 44 0 63 -2 43 -4z m205 0 c-29 -2 -78 -2 -110 0 -32
2 -8 3 52 3 61 0 87 -1 58 -3z"/>
<path d="M13960 18360 c0 -5 4 -10 9 -10 6 0 13 5 16 10 3 6 -1 10 -9 10 -9 0
-16 -4 -16 -10z"/>
<path d="M15738 17483 c7 -3 16 -2 19 1 4 3 -2 6 -13 5 -11 0 -14 -3 -6 -6z"/>
<path d="M16078 17463 c17 -2 47 -2 65 0 17 2 3 4 -33 4 -36 0 -50 -2 -32 -4z"/>
<path d="M8327 9523 c-4 -3 -7 -11 -7 -17 0 -6 5 -5 12 2 6 6 9 14 7 17 -3 3
-9 2 -12 -2z"/>
<path d="M12852 8634 c-29 -30 -50 -59 -47 -65 4 -5 1 -9 -4 -9 -24 0 -205
-266 -301 -445 -74 -136 -72 -132 -68 -203 3 -59 9 -77 51 -147 26 -44 80
-127 120 -185 40 -58 122 -184 184 -280 61 -96 175 -274 252 -395 78 -121 154
-240 170 -265 15 -25 88 -142 161 -260 74 -118 231 -361 350 -540 119 -179
274 -415 344 -525 71 -110 190 -294 266 -410 76 -115 191 -293 256 -395 209
-329 421 -663 485 -765 86 -137 425 -653 764 -1165 154 -234 322 -490 372
-570 108 -173 276 -488 269 -505 -2 -7 -36 -16 -83 -20 -83 -8 -1558 -21
-2288 -21 -401 1 -443 3 -475 19 -33 17 -110 81 -110 92 0 3 -22 38 -49 78
-67 100 -122 187 -233 367 -52 85 -160 254 -240 375 -79 121 -172 263 -206
315 -34 52 -225 341 -424 642 -200 301 -394 597 -433 658 -38 61 -86 133 -105
160 -19 27 -56 82 -81 122 -49 77 -185 286 -311 478 -90 137 -311 462 -339
499 -23 30 -267 400 -318 482 -19 29 -73 115 -121 189 -48 74 -115 179 -149
232 -59 94 -217 336 -438 670 -57 86 -109 160 -116 164 -7 5 -6 0 3 -12 14
-17 14 -18 -2 -6 -9 8 -15 19 -12 27 3 7 1 16 -5 20 -6 3 -11 1 -11 -5 0 -6
-12 2 -27 17 -23 23 -37 28 -76 28 -40 0 -51 -5 -72 -29 -23 -27 -29 -40 -27
-57 1 -4 -8 -4 -20 -1 -12 3 -19 1 -15 -5 3 -5 -4 -21 -17 -36 -12 -14 -31
-38 -42 -53 -10 -14 -29 -38 -40 -53 -47 -57 -463 -707 -501 -781 -10 -19 -20
-37 -23 -40 -14 -13 -60 -87 -60 -96 0 -5 -11 -19 -23 -31 -13 -11 -32 -38
-42 -60 -11 -21 -33 -55 -48 -75 -16 -21 -50 -71 -75 -111 -26 -40 -53 -82
-60 -93 -7 -10 -25 -38 -40 -62 -15 -24 -49 -78 -77 -121 -47 -73 -119 -186
-190 -296 -18 -27 -56 -89 -86 -138 -98 -158 -172 -273 -366 -569 -46 -70 -83
-131 -83 -137 0 -5 -4 -11 -8 -13 -11 -4 -265 -390 -509 -771 -39 -62 -91
-143 -116 -182 -186 -290 -253 -396 -319 -505 -42 -69 -123 -196 -180 -282
-96 -146 -129 -199 -276 -428 -30 -47 -69 -107 -87 -135 -18 -27 -60 -95 -95
-150 -35 -55 -83 -131 -108 -170 -72 -113 -91 -143 -115 -182 -30 -49 -67
-106 -216 -332 -67 -101 -121 -189 -121 -197 0 -7 -7 -17 -16 -22 -8 -5 -21
-18 -27 -29 -49 -85 -48 -81 -31 -98 12 -12 33 -15 78 -14 90 2 191 -9 188
-21 -2 -9 97 -12 528 -14 78 -1 124 3 124 9 -1 6 14 20 33 32 19 13 31 17 28
10 -17 -35 175 226 256 348 84 127 204 312 255 393 21 34 120 186 219 337 167
255 255 391 361 555 22 36 75 117 116 180 40 63 101 157 133 208 33 51 100
155 149 230 49 75 103 160 121 187 18 28 130 201 250 385 250 384 243 374 321
500 32 52 132 209 223 347 92 139 184 281 205 315 22 35 63 99 91 143 28 44
74 115 101 158 95 152 196 299 274 402 43 57 77 106 74 109 -2 3 -1 4 3 1 3
-3 13 1 22 8 28 25 49 26 72 6 12 -10 27 -19 34 -19 24 0 107 -115 111 -154 3
-28 5 -30 15 -16 9 13 10 12 5 -2 -3 -10 -1 -20 4 -23 6 -4 10 -11 10 -17 0
-6 -9 -3 -20 7 -11 10 -20 14 -20 9 0 -5 -11 5 -25 21 l-25 30 21 -37 c11 -21
25 -36 29 -33 5 3 12 0 16 -6 5 -8 3 -9 -6 -4 -8 5 -11 3 -8 -6 3 -8 11 -13
17 -12 6 2 11 0 12 -5 3 -29 16 -56 89 -174 97 -159 161 -260 301 -473 137
-208 212 -325 274 -426 110 -177 291 -456 790 -1214 508 -771 610 -926 819
-1248 122 -185 253 -388 291 -449 155 -247 290 -447 346 -511 34 -37 83 -67
102 -61 14 4 17 3 12 -7 -6 -9 -3 -11 10 -6 9 4 24 2 31 -4 28 -23 371 -27
2334 -24 1843 3 2365 8 2374 24 2 3 -33 4 -77 3 -45 -2 -80 -1 -77 1 3 3 61 7
130 10 72 3 106 2 80 -2 -44 -8 -43 -8 23 -9 41 -1 67 2 67 9 0 5 5 7 10 4 6
-3 16 0 24 8 24 23 -10 85 -203 372 -290 430 -413 618 -535 815 -43 69 -123
195 -178 280 -56 85 -165 254 -243 375 -274 426 -428 655 -436 649 -5 -3 -7 1
-4 8 3 7 -19 49 -48 94 -46 72 -211 328 -337 524 -25 39 -99 155 -165 258 -65
103 -174 270 -240 372 -150 228 -455 707 -520 815 -82 138 -337 537 -566 885
-121 184 -274 421 -341 525 -169 265 -372 578 -582 899 -62 94 -129 198 -150
231 -80 128 -207 327 -304 475 -56 85 -120 187 -143 225 -56 94 -107 155 -127
154 -9 0 -41 -25 -70 -55z m-3000 -1592 c-7 -2 -12 -10 -12 -17 0 -16 -25 -14
-42 3 -9 9 -9 12 0 12 7 0 12 -6 12 -12 0 -7 7 -2 16 10 8 12 20 19 27 15 8
-5 8 -8 -1 -11z m-12 -52 c0 -5 -9 -10 -20 -10 -11 0 -20 5 -20 10 0 6 9 10
20 10 11 0 20 -4 20 -10z m7984 -6095 c3 -8 1 -15 -4 -15 -6 0 -10 7 -10 15 0
8 2 15 4 15 2 0 6 -7 10 -15z m66 -25 c-19 -12 -30 -12 -30 -1 0 10 31 20 40
14 2 -2 -2 -8 -10 -13z m-67 -27 c-7 -2 -19 -2 -25 0 -7 3 -2 5 12 5 14 0 19
-2 13 -5z m102 -13 c4 -12 15 -20 28 -20 22 -1 22 -1 -2 -14 -26 -14 -61 -10
-61 7 0 8 -3 8 -11 0 -8 -8 -20 -8 -35 -3 -13 5 -31 7 -39 4 -8 -4 -15 -2 -15
3 0 9 6 11 50 15 11 1 20 5 20 9 0 7 22 15 47 18 6 0 15 -8 18 -19z m-295 -10
c0 -5 -5 -10 -11 -10 -5 0 -7 5 -4 10 3 6 8 10 11 10 2 0 4 -4 4 -10z m-11075
-117 c-21 -15 -65 -18 -65 -4 0 5 8 7 19 4 10 -2 25 2 32 10 8 8 18 12 23 9 5
-3 1 -11 -9 -19z"/>
<path d="M10424 8004 c1 -29 2 -29 15 -5 8 14 7 20 -3 24 -10 4 -13 -2 -12
-19z"/>
<path d="M10420 7911 c0 -6 4 -13 10 -16 6 -3 7 1 4 9 -7 18 -14 21 -14 7z"/>
<path d="M15034 2142 c4 -7 -9 -12 -36 -15 l-43 -4 48 -1 c45 -2 60 9 35 24
-6 4 -8 3 -4 -4z"/>
</g>
</svg>
