<?xml version="1.0" standalone="no"?>
<!DOCTYPE svg PUBLIC "-//W3C//DTD SVG 20010904//EN"
 "http://www.w3.org/TR/2001/REC-SVG-20010904/DTD/svg10.dtd">
<svg version="1.0" xmlns="http://www.w3.org/2000/svg"
 width="2336.000000pt" height="1624.000000pt" viewBox="0 0 2336.000000 1624.000000"
 preserveAspectRatio="xMidYMid meet">

<g transform="translate(0.000000,1624.000000) scale(0.100000,-0.100000)"
fill="#000000" stroke="none">
<path d="M8401 15513 c0 -5 16 -28 34 -53 38 -49 132 -191 300 -449 61 -93
190 -293 288 -443 98 -150 229 -352 292 -448 62 -96 207 -318 322 -493 114
-175 251 -384 304 -465 52 -81 176 -271 275 -422 99 -151 220 -337 270 -413
49 -76 114 -177 145 -225 32 -48 123 -188 205 -312 81 -124 171 -263 200 -310
29 -47 59 -86 68 -88 10 -2 23 9 34 28 27 50 289 463 852 1345 211 330 456
715 545 855 89 140 204 320 255 400 51 80 150 235 220 345 70 110 174 272 230
360 57 88 145 225 195 305 50 80 140 220 198 312 59 91 107 169 107 172 0 3
-121 6 -269 6 l-269 0 -35 -47 c-19 -27 -65 -97 -102 -158 -37 -60 -152 -243
-255 -405 -213 -335 -487 -770 -695 -1100 -78 -124 -179 -283 -225 -355 -45
-71 -146 -231 -222 -354 -77 -123 -172 -274 -212 -335 -40 -61 -105 -163 -145
-226 -98 -154 -183 -279 -198 -292 -16 -13 -33 7 -132 162 -77 121 -199 308
-446 682 -211 319 -589 897 -730 1115 -86 134 -349 535 -463 706 -46 70 -81
131 -77 135 3 4 111 8 239 10 213 3 234 2 253 -15 11 -10 67 -90 124 -178 56
-88 166 -259 244 -380 78 -121 199 -310 270 -420 70 -110 196 -306 280 -435
83 -129 211 -328 285 -442 73 -115 139 -208 146 -208 7 0 30 28 50 63 20 34
76 126 125 204 49 78 89 146 89 151 0 5 -22 42 -48 83 -27 41 -85 130 -129
199 -83 130 -300 468 -533 830 -74 115 -196 305 -270 422 -254 399 -361 563
-378 576 -12 9 -191 12 -814 12 -439 0 -798 -3 -797 -7z"/>
<path d="M7440 15496 c0 -3 26 -44 59 -93 32 -48 97 -149 143 -223 47 -74 158
-250 248 -390 89 -140 383 -601 653 -1025 269 -423 549 -862 622 -975 72 -113
187 -293 255 -400 68 -107 194 -305 280 -440 86 -135 210 -330 276 -435 65
-104 170 -266 232 -360 l112 -170 -19 -25 c-23 -29 -53 -77 -266 -415 -292
-463 -322 -511 -462 -730 -68 -106 -524 -826 -666 -1050 -38 -60 -91 -144
-117 -185 -26 -41 -95 -149 -152 -240 -307 -486 -520 -823 -765 -1208 -150
-235 -298 -470 -329 -522 -72 -119 -131 -208 -161 -240 l-22 -25 757 3 c416 1
767 4 778 7 15 3 57 59 130 172 59 93 176 274 259 403 84 129 175 271 202 315
28 44 77 121 109 172 32 51 149 233 258 405 110 172 233 364 274 426 41 63
125 193 186 290 62 98 134 212 162 255 57 90 199 312 283 442 80 124 125 195
290 455 78 124 210 331 293 460 237 370 301 470 451 705 212 333 284 444 403
630 61 94 179 279 264 413 85 133 185 289 221 345 68 107 233 364 352 552 39
61 99 155 134 210 36 55 132 206 215 335 83 129 186 289 228 355 95 148 179
280 348 545 320 502 381 597 445 695 l68 103 227 4 c125 2 231 1 235 -3 11 -8
-105 -202 -268 -449 -24 -36 -134 -209 -246 -385 -112 -176 -349 -549 -527
-830 -179 -280 -399 -627 -490 -770 -91 -143 -200 -314 -242 -380 -127 -199
-301 -472 -370 -581 -64 -102 -144 -228 -387 -608 -67 -105 -159 -249 -204
-321 -46 -71 -126 -195 -178 -275 -185 -284 -186 -287 -153 -324 11 -12 74
-109 142 -216 68 -107 142 -224 165 -260 229 -355 333 -517 450 -705 139 -223
299 -472 385 -600 26 -38 60 -92 75 -120 15 -27 38 -66 51 -85 165 -256 289
-449 392 -610 68 -107 141 -220 161 -250 21 -30 48 -74 61 -97 l24 -43 273 0
c150 0 273 4 273 8 0 5 -13 28 -29 53 -16 24 -89 136 -163 249 -74 113 -182
282 -241 375 -59 94 -153 240 -208 325 -56 85 -136 211 -179 280 -87 141 -228
360 -300 465 -42 62 -270 418 -578 905 -57 91 -133 207 -168 259 -35 51 -64
100 -64 110 0 9 29 61 65 116 35 55 85 134 111 175 26 41 97 152 157 245 61
94 124 193 142 220 18 28 173 271 345 540 172 270 336 526 365 570 29 44 115
179 192 300 229 361 392 616 438 685 23 36 98 153 166 260 68 107 142 223 164
257 227 353 881 1378 1033 1618 80 127 162 256 183 287 22 31 39 59 39 62 0 4
-351 6 -780 6 l-779 0 -33 -47 c-39 -56 -184 -282 -463 -718 -141 -221 -149
-233 -292 -455 -55 -85 -180 -281 -278 -435 -98 -154 -197 -309 -220 -345 -23
-36 -89 -139 -146 -228 -57 -90 -159 -250 -226 -355 -68 -106 -156 -243 -195
-306 -40 -63 -126 -195 -190 -295 -64 -100 -192 -300 -284 -446 -219 -347
-330 -520 -419 -655 -40 -60 -90 -139 -112 -175 -22 -36 -76 -121 -120 -190
-340 -534 -472 -741 -582 -910 -70 -107 -212 -329 -316 -493 -105 -163 -226
-354 -270 -422 -44 -69 -207 -324 -362 -568 -286 -448 -585 -917 -778 -1217
-58 -91 -138 -214 -176 -275 -38 -60 -77 -117 -86 -127 -15 -16 -37 -18 -229
-18 -117 0 -215 3 -218 8 -4 6 104 182 368 602 42 66 182 287 250 393 32 51
118 187 191 302 73 116 218 345 323 510 106 165 211 332 235 370 150 239 418
665 632 1001 137 214 303 477 370 584 67 107 152 242 189 299 36 57 66 109 66
115 0 6 -40 70 -88 143 -48 73 -112 171 -142 219 -30 48 -170 268 -312 488
-356 556 -353 552 -470 736 -58 91 -135 212 -173 270 -168 260 -434 677 -488
765 -17 28 -83 131 -148 230 -117 181 -153 237 -379 595 -67 107 -146 231
-175 275 -84 129 -323 501 -398 620 -108 173 -65 155 -379 155 -147 0 -268 -2
-268 -4z"/>
<path d="M13104 10473 c-20 -38 -74 -121 -118 -186 -45 -65 -87 -128 -95 -141
-13 -21 -8 -32 85 -174 54 -84 135 -209 179 -277 44 -68 139 -215 210 -325
176 -273 188 -291 284 -443 78 -122 289 -445 519 -797 52 -80 150 -230 217
-335 136 -212 311 -483 482 -743 133 -203 149 -232 131 -233 -7 0 -335 -2
-728 -5 -490 -2 -723 0 -741 7 -18 7 -55 54 -110 137 -278 423 -417 635 -624
947 -128 193 -273 413 -322 490 -49 77 -224 343 -388 590 -164 248 -336 509
-383 580 -83 128 -119 175 -133 175 -4 0 -32 -42 -63 -92 -32 -51 -111 -176
-177 -278 -66 -102 -163 -252 -216 -335 -53 -82 -144 -224 -203 -315 -58 -91
-142 -221 -187 -290 -44 -69 -147 -228 -228 -355 -82 -126 -173 -269 -204
-318 -31 -48 -83 -129 -116 -180 -33 -50 -116 -180 -185 -287 -68 -107 -166
-259 -217 -337 -51 -78 -127 -197 -169 -265 -42 -68 -108 -169 -146 -225 -37
-56 -68 -104 -68 -105 0 -2 119 -4 264 -6 l264 -3 38 45 c22 25 84 116 139
202 139 217 393 612 561 871 78 120 217 335 309 478 92 143 198 307 236 365
38 58 138 213 222 345 85 132 160 240 168 240 8 0 28 -21 44 -46 17 -26 76
-118 132 -205 313 -485 446 -691 576 -889 211 -320 548 -837 657 -1008 52 -81
131 -200 175 -265 l81 -117 1299 -5 c715 -3 1301 -5 1301 -5 3 0 -171 275
-281 445 -123 192 -272 424 -439 685 -71 110 -162 252 -204 315 -42 63 -121
187 -177 275 -56 88 -151 237 -211 330 -61 94 -150 233 -198 310 -48 77 -111
174 -139 216 -64 93 -273 416 -432 669 -251 398 -592 920 -609 932 -19 13 -24
9 -62 -59z"/>
<path d="M17520 4379 c-47 -5 -133 -18 -192 -29 -385 -73 -799 -327 -1074
-658 -281 -338 -425 -728 -425 -1148 1 -344 70 -607 239 -906 97 -172 171
-268 342 -439 102 -102 163 -154 250 -212 529 -350 1175 -417 1754 -182 488
199 870 611 1054 1138 51 144 78 272 92 442 15 170 -5 429 -46 590 -91 359
-305 711 -586 963 -371 333 -885 494 -1408 441z m335 -233 c189 -9 373 -60
570 -156 124 -60 244 -135 305 -191 19 -17 54 -47 78 -67 51 -42 206 -226 255
-304 47 -72 122 -224 158 -317 124 -323 133 -747 24 -1091 -35 -109 -116 -284
-172 -374 -40 -63 -174 -225 -240 -288 -172 -166 -404 -307 -623 -376 -103
-32 -300 -67 -446 -78 -149 -11 -412 28 -594 88 -142 46 -368 173 -485 271
-354 298 -552 649 -610 1082 -45 333 24 653 214 988 123 218 352 452 566 579
169 101 405 192 565 218 83 14 259 27 305 23 17 -1 75 -4 130 -7z"/>
<path d="M21335 4373 c-345 -31 -629 -186 -794 -434 -101 -150 -135 -269 -135
-469 0 -126 2 -141 32 -227 59 -172 136 -298 257 -419 104 -105 195 -169 340
-240 148 -72 195 -88 536 -178 279 -74 389 -111 504 -168 209 -104 332 -216
405 -366 56 -114 69 -165 76 -292 8 -130 -5 -203 -51 -296 -67 -138 -187 -238
-355 -298 -301 -107 -795 -112 -1144 -11 -210 61 -345 136 -466 259 -98 100
-127 112 -185 76 -93 -58 -84 -130 34 -253 115 -121 274 -219 464 -286 316
-111 801 -142 1145 -71 282 57 474 159 619 329 148 173 202 376 170 636 -34
266 -161 482 -379 645 -78 58 -275 165 -361 196 -156 58 -255 88 -408 128
-508 131 -693 228 -858 447 -148 196 -187 402 -112 595 131 338 467 503 945
465 245 -19 398 -57 560 -138 102 -50 118 -62 201 -142 77 -74 103 -91 138
-91 42 0 107 67 107 109 0 138 -267 337 -570 424 -199 58 -513 88 -715 70z"/>
<path d="M3963 4305 c-48 -20 -73 -54 -73 -96 0 -48 28 -125 155 -429 161
-385 223 -533 295 -710 37 -91 100 -244 140 -340 182 -438 273 -659 445 -1080
138 -341 314 -760 343 -820 47 -94 134 -129 188 -75 29 29 87 149 167 345 98
241 223 540 330 790 58 135 161 385 230 555 69 171 171 418 227 550 196 467
468 1131 478 1167 22 82 -30 148 -115 148 -30 0 -46 -7 -65 -27 -31 -33 -185
-382 -363 -823 -70 -173 -144 -355 -165 -405 -21 -49 -119 -288 -219 -530
-100 -242 -223 -536 -272 -654 -50 -117 -96 -230 -104 -250 -53 -152 -186
-442 -199 -438 -11 4 -86 168 -155 342 -22 55 -54 134 -71 175 -17 41 -60 145
-95 230 -35 85 -93 227 -130 315 -36 88 -90 219 -120 290 -29 72 -76 186 -105
255 -87 207 -148 356 -220 530 -37 91 -111 271 -165 400 -53 129 -119 288
-145 352 -90 221 -133 268 -217 233z"/>
<path d="M7725 4312 c-12 -1 -34 -13 -50 -26 l-30 -24 0 -1741 0 -1740 23 -23
c18 -19 33 -23 87 -23 56 0 68 3 91 26 l26 26 3 1714 c3 1857 5 1762 -49 1791
-27 15 -76 24 -101 20z"/>
<path d="M8703 4303 c-12 -2 -34 -21 -50 -41 l-28 -37 0 -1700 0 -1700 23 -42
c12 -23 32 -45 44 -50 34 -12 1322 -5 1453 8 266 26 482 98 740 246 96 55 289
197 364 267 253 237 451 608 516 962 9 49 19 159 22 244 6 166 -8 302 -49 470
-18 77 -90 280 -108 305 -4 6 -31 55 -60 110 -171 324 -465 598 -848 789 -126
64 -318 119 -522 152 -90 15 -202 18 -790 20 -377 1 -695 0 -707 -3z m1277
-233 c288 -17 462 -61 695 -175 238 -117 444 -292 598 -507 117 -165 227 -430
263 -638 22 -127 22 -345 0 -475 -49 -292 -192 -573 -401 -793 -203 -213 -457
-370 -724 -447 -239 -68 -239 -68 -933 -72 l-628 -4 0 1555 0 1555 43 4 c91 8
940 6 1087 -3z"/>
<path d="M12723 4301 c-106 -5 -124 -9 -138 -26 -47 -59 -45 26 -45 -1763 0
-1059 4 -1691 10 -1712 5 -19 19 -43 31 -53 20 -16 93 -17 1225 -17 898 0
1210 3 1229 12 40 18 68 71 60 116 -10 58 -38 85 -98 93 -29 3 -540 7 -1137 8
-596 1 -1085 3 -1086 4 -6 6 -15 1397 -10 1415 l7 22 981 0 981 0 43 44 c28
27 44 52 44 67 0 35 -33 92 -61 106 -19 10 -245 13 -1001 13 -537 0 -979 3
-981 8 -9 14 -18 1407 -10 1419 7 10 246 13 1104 13 1066 1 1095 1 1127 20 37
23 47 54 38 118 -10 71 -30 86 -134 94 -104 8 -2003 7 -2179 -1z"/>
<path d="M553 4279 c-36 -23 -58 -76 -48 -116 7 -28 38 -74 252 -374 82 -114
238 -332 347 -485 265 -370 366 -511 446 -619 104 -141 100 -120 39 -206 -29
-41 -64 -89 -78 -108 -29 -37 -95 -129 -157 -217 -96 -136 -341 -476 -689
-954 -246 -338 -243 -333 -227 -389 15 -49 46 -72 105 -78 54 -6 84 17 162
125 30 42 127 176 214 297 88 121 252 349 365 506 113 157 238 330 279 385 40
54 96 133 124 174 28 41 63 86 78 100 l26 25 20 -25 c23 -29 373 -510 477
-655 39 -55 158 -220 264 -368 106 -147 216 -299 243 -339 89 -128 159 -209
190 -222 66 -27 155 28 155 96 0 50 -30 99 -181 303 -77 105 -217 296 -309
425 -93 129 -210 291 -260 360 -50 69 -135 188 -190 265 -54 77 -137 192 -184
255 l-85 114 23 31 c12 16 74 102 136 190 63 88 231 322 374 520 455 630 575
799 597 841 27 50 21 84 -26 131 -44 44 -99 46 -142 6 -35 -33 -192 -244 -444
-596 -101 -142 -206 -290 -234 -328 -27 -38 -125 -174 -217 -302 -168 -233
-202 -277 -217 -277 -9 0 -34 33 -126 167 -71 103 -241 340 -465 648 -68 94
-155 215 -193 270 -170 244 -305 423 -328 435 -29 16 -82 11 -116 -11z"/>
</g>
</svg>
